<mxfile host="app.diagrams.net" modified="2023-10-20T09:40:59.737Z" agent="Mozilla/5.0 (Windows NT 10.0; Win64; x64) AppleWebKit/537.36 (KHTML, like Gecko) Chrome/118.0.0.0 Safari/537.36" etag="26Skc6vilM9sbumKDV2I" version="22.0.5" type="device">
  <diagram name="Page-1" id="edf60f1a-56cd-e834-aa8a-f176f3a09ee4">
    <mxGraphModel dx="1434" dy="750" grid="1" gridSize="10" guides="1" tooltips="1" connect="1" arrows="1" fold="1" page="1" pageScale="1" pageWidth="1100" pageHeight="850" background="none" math="0" shadow="0">
      <root>
        <mxCell id="0" />
        <mxCell id="1" parent="0" />
        <mxCell id="YvYYPQl1nn8t_g6paHAM-7" value="always" style="edgeStyle=orthogonalEdgeStyle;rounded=0;orthogonalLoop=1;jettySize=auto;html=1;" parent="1" source="YvYYPQl1nn8t_g6paHAM-3" target="YvYYPQl1nn8t_g6paHAM-6" edge="1">
          <mxGeometry relative="1" as="geometry" />
        </mxCell>
        <mxCell id="YvYYPQl1nn8t_g6paHAM-3" value="Shutdown" style="rounded=1;whiteSpace=wrap;html=1;" parent="1" vertex="1">
          <mxGeometry x="480" y="120" width="120" height="80" as="geometry" />
        </mxCell>
        <mxCell id="YvYYPQl1nn8t_g6paHAM-11" value="at least one &lt;br&gt;Component Failed" style="edgeStyle=orthogonalEdgeStyle;rounded=0;orthogonalLoop=1;jettySize=auto;html=1;entryX=0.5;entryY=0;entryDx=0;entryDy=0;" parent="1" source="YvYYPQl1nn8t_g6paHAM-6" target="YvYYPQl1nn8t_g6paHAM-10" edge="1">
          <mxGeometry x="0.4884" relative="1" as="geometry">
            <Array as="points">
              <mxPoint x="700" y="310" />
            </Array>
            <mxPoint as="offset" />
          </mxGeometry>
        </mxCell>
        <mxCell id="YvYYPQl1nn8t_g6paHAM-6" value="Booting" style="whiteSpace=wrap;html=1;rounded=1;" parent="1" vertex="1">
          <mxGeometry x="480" y="280" width="120" height="60" as="geometry" />
        </mxCell>
        <mxCell id="YvYYPQl1nn8t_g6paHAM-24" value="If no logger&amp;nbsp;&lt;br&gt;is attached" style="edgeStyle=orthogonalEdgeStyle;rounded=0;orthogonalLoop=1;jettySize=auto;html=1;entryX=1;entryY=0.5;entryDx=0;entryDy=0;labelBackgroundColor=default;" parent="1" source="YvYYPQl1nn8t_g6paHAM-10" target="YvYYPQl1nn8t_g6paHAM-3" edge="1">
          <mxGeometry relative="1" as="geometry">
            <Array as="points">
              <mxPoint x="800" y="455" />
              <mxPoint x="800" y="160" />
            </Array>
          </mxGeometry>
        </mxCell>
        <mxCell id="YvYYPQl1nn8t_g6paHAM-10" value="Panic" style="whiteSpace=wrap;html=1;rounded=1;" parent="1" vertex="1">
          <mxGeometry x="640" y="425" width="120" height="60" as="geometry" />
        </mxCell>
        <mxCell id="YvYYPQl1nn8t_g6paHAM-30" value="pressing any button&amp;nbsp;" style="edgeStyle=orthogonalEdgeStyle;rounded=0;orthogonalLoop=1;jettySize=auto;html=1;labelBackgroundColor=none;fontFamily=Helvetica;entryX=1;entryY=0.873;entryDx=0;entryDy=0;entryPerimeter=0;" parent="1" source="YvYYPQl1nn8t_g6paHAM-26" edge="1" target="YvYYPQl1nn8t_g6paHAM-27">
          <mxGeometry x="-0.1262" y="10" relative="1" as="geometry">
            <mxPoint x="599" y="850" as="targetPoint" />
            <Array as="points">
              <mxPoint x="599" y="850" />
              <mxPoint x="599" y="854" />
            </Array>
            <mxPoint as="offset" />
          </mxGeometry>
        </mxCell>
        <mxCell id="YvYYPQl1nn8t_g6paHAM-31" value="no button press&lt;br&gt;60 sec" style="edgeStyle=orthogonalEdgeStyle;rounded=0;orthogonalLoop=1;jettySize=auto;html=1;labelBackgroundColor=none;fontFamily=Helvetica;exitX=1.003;exitY=0.798;exitDx=0;exitDy=0;exitPerimeter=0;entryX=0;entryY=0.25;entryDx=0;entryDy=0;" parent="1" source="YvYYPQl1nn8t_g6paHAM-27" target="YvYYPQl1nn8t_g6paHAM-26" edge="1">
          <mxGeometry x="-0.0574" relative="1" as="geometry">
            <mxPoint x="630" y="780" as="targetPoint" />
            <Array as="points">
              <mxPoint x="622" y="825" />
            </Array>
            <mxPoint as="offset" />
          </mxGeometry>
        </mxCell>
        <mxCell id="YvYYPQl1nn8t_g6paHAM-26" value="sleep" style="rounded=1;whiteSpace=wrap;html=1;" parent="1" vertex="1">
          <mxGeometry x="780" y="810" width="120" height="60" as="geometry" />
        </mxCell>
        <mxCell id="YvYYPQl1nn8t_g6paHAM-27" value="" style="swimlane;startSize=0;fillColor=#D5E8D4;strokeColor=#82b366;glass=0;shadow=0;rounded=0;swimlaneFillColor=#D5E8D4;" parent="1" vertex="1">
          <mxGeometry x="40" y="400" width="580" height="520" as="geometry">
            <mxRectangle x="40" y="400" width="50" height="40" as="alternateBounds" />
          </mxGeometry>
        </mxCell>
        <mxCell id="YvYYPQl1nn8t_g6paHAM-8" value="Ready" style="whiteSpace=wrap;html=1;rounded=1;" parent="YvYYPQl1nn8t_g6paHAM-27" vertex="1">
          <mxGeometry x="280" y="22.5" width="120" height="60" as="geometry" />
        </mxCell>
        <mxCell id="YvYYPQl1nn8t_g6paHAM-13" value="Armed" style="whiteSpace=wrap;html=1;rounded=1;" parent="YvYYPQl1nn8t_g6paHAM-27" vertex="1">
          <mxGeometry x="160" y="157.5" width="120" height="60" as="geometry" />
        </mxCell>
        <mxCell id="YvYYPQl1nn8t_g6paHAM-14" value="press all buttons" style="edgeStyle=orthogonalEdgeStyle;rounded=0;orthogonalLoop=1;jettySize=auto;html=1;labelBackgroundColor=none;" parent="YvYYPQl1nn8t_g6paHAM-27" source="YvYYPQl1nn8t_g6paHAM-8" target="YvYYPQl1nn8t_g6paHAM-13" edge="1">
          <mxGeometry x="0.3939" relative="1" as="geometry">
            <Array as="points">
              <mxPoint x="220" y="52.5" />
            </Array>
            <mxPoint as="offset" />
          </mxGeometry>
        </mxCell>
        <mxCell id="2ly5T8zjIKEABkKa2kA5-3" value="action butten after &lt;br&gt;last digit is set" style="edgeStyle=orthogonalEdgeStyle;rounded=0;orthogonalLoop=1;jettySize=auto;html=1;entryX=1;entryY=0.25;entryDx=0;entryDy=0;labelBackgroundColor=none;" edge="1" parent="YvYYPQl1nn8t_g6paHAM-27" source="YvYYPQl1nn8t_g6paHAM-15" target="YvYYPQl1nn8t_g6paHAM-8">
          <mxGeometry x="-0.425" y="-40" relative="1" as="geometry">
            <Array as="points">
              <mxPoint x="480" y="38" />
            </Array>
            <mxPoint as="offset" />
          </mxGeometry>
        </mxCell>
        <mxCell id="YvYYPQl1nn8t_g6paHAM-15" value="Menu" style="whiteSpace=wrap;html=1;rounded=1;" parent="YvYYPQl1nn8t_g6paHAM-27" vertex="1">
          <mxGeometry x="400" y="157.5" width="120" height="60" as="geometry" />
        </mxCell>
        <mxCell id="YvYYPQl1nn8t_g6paHAM-16" value="hold all buttons" style="edgeStyle=orthogonalEdgeStyle;rounded=0;orthogonalLoop=1;jettySize=auto;html=1;labelBackgroundColor=none;" parent="YvYYPQl1nn8t_g6paHAM-27" source="YvYYPQl1nn8t_g6paHAM-8" target="YvYYPQl1nn8t_g6paHAM-15" edge="1">
          <mxGeometry x="0.5161" y="-30" relative="1" as="geometry">
            <Array as="points">
              <mxPoint x="450" y="53" />
            </Array>
            <mxPoint y="1" as="offset" />
          </mxGeometry>
        </mxCell>
        <mxCell id="YvYYPQl1nn8t_g6paHAM-17" value="&#xa;&lt;span style=&quot;color: rgb(0, 0, 0); font-family: Helvetica; font-size: 11px; font-style: normal; font-variant-ligatures: normal; font-variant-caps: normal; font-weight: 400; letter-spacing: normal; orphans: 2; text-align: center; text-indent: 0px; text-transform: none; widows: 2; word-spacing: 0px; -webkit-text-stroke-width: 0px; text-decoration-thickness: initial; text-decoration-style: initial; text-decoration-color: initial; float: none; display: inline !important;&quot;&gt;hold all buttons&lt;/span&gt;&#xa;&#xa;" style="edgeStyle=orthogonalEdgeStyle;rounded=0;orthogonalLoop=1;jettySize=auto;html=1;entryX=0;entryY=0.5;entryDx=0;entryDy=0;labelBackgroundColor=none;" parent="YvYYPQl1nn8t_g6paHAM-27" source="YvYYPQl1nn8t_g6paHAM-13" target="YvYYPQl1nn8t_g6paHAM-15" edge="1">
          <mxGeometry y="-20" relative="1" as="geometry">
            <mxPoint as="offset" />
          </mxGeometry>
        </mxCell>
        <mxCell id="YvYYPQl1nn8t_g6paHAM-18" value="Recording&lt;br&gt;while in sleep" style="whiteSpace=wrap;html=1;rounded=1;" parent="YvYYPQl1nn8t_g6paHAM-27" vertex="1">
          <mxGeometry x="160" y="297.5" width="120" height="60" as="geometry" />
        </mxCell>
        <mxCell id="YvYYPQl1nn8t_g6paHAM-19" value="wait 30 min" style="edgeStyle=orthogonalEdgeStyle;rounded=0;orthogonalLoop=1;jettySize=auto;html=1;labelBackgroundColor=none;" parent="YvYYPQl1nn8t_g6paHAM-27" source="YvYYPQl1nn8t_g6paHAM-13" target="YvYYPQl1nn8t_g6paHAM-18" edge="1">
          <mxGeometry relative="1" as="geometry" />
        </mxCell>
        <mxCell id="YvYYPQl1nn8t_g6paHAM-22" value="&#xa;&lt;span style=&quot;color: rgb(0, 0, 0); font-family: Helvetica; font-size: 11px; font-style: normal; font-variant-ligatures: normal; font-variant-caps: normal; font-weight: 400; letter-spacing: normal; orphans: 2; text-align: center; text-indent: 0px; text-transform: none; widows: 2; word-spacing: 0px; -webkit-text-stroke-width: 0px; text-decoration-thickness: initial; text-decoration-style: initial; text-decoration-color: initial; float: none; display: inline !important;&quot;&gt;hold all buttons&lt;/span&gt;&#xa;&#xa;" style="edgeStyle=orthogonalEdgeStyle;rounded=0;orthogonalLoop=1;jettySize=auto;html=1;entryX=0.5;entryY=1;entryDx=0;entryDy=0;labelBackgroundColor=none;" parent="YvYYPQl1nn8t_g6paHAM-27" source="YvYYPQl1nn8t_g6paHAM-20" target="YvYYPQl1nn8t_g6paHAM-15" edge="1">
          <mxGeometry x="0.3953" relative="1" as="geometry">
            <mxPoint as="offset" />
          </mxGeometry>
        </mxCell>
        <mxCell id="YvYYPQl1nn8t_g6paHAM-23" value="&#xa;&lt;span style=&quot;color: rgb(0, 0, 0); font-family: Helvetica; font-size: 11px; font-style: normal; font-variant-ligatures: normal; font-variant-caps: normal; font-weight: 400; letter-spacing: normal; orphans: 2; text-align: center; text-indent: 0px; text-transform: none; widows: 2; word-spacing: 0px; -webkit-text-stroke-width: 0px; text-decoration-thickness: initial; text-decoration-style: initial; text-decoration-color: initial; float: none; display: inline !important;&quot;&gt;press all buttons&lt;/span&gt;&#xa;&#xa;" style="edgeStyle=orthogonalEdgeStyle;rounded=0;orthogonalLoop=1;jettySize=auto;html=1;labelBackgroundColor=none;entryX=0;entryY=0.5;entryDx=0;entryDy=0;" parent="YvYYPQl1nn8t_g6paHAM-27" source="YvYYPQl1nn8t_g6paHAM-20" target="YvYYPQl1nn8t_g6paHAM-13" edge="1">
          <mxGeometry x="-0.1023" relative="1" as="geometry">
            <mxPoint x="90" y="287.5" as="targetPoint" />
            <Array as="points">
              <mxPoint x="80" y="467.5" />
              <mxPoint x="80" y="187.5" />
            </Array>
            <mxPoint as="offset" />
          </mxGeometry>
        </mxCell>
        <mxCell id="YvYYPQl1nn8t_g6paHAM-20" value="Waiting" style="whiteSpace=wrap;html=1;rounded=1;" parent="YvYYPQl1nn8t_g6paHAM-27" vertex="1">
          <mxGeometry x="160" y="437.5" width="120" height="60" as="geometry" />
        </mxCell>
        <mxCell id="YvYYPQl1nn8t_g6paHAM-21" value="Gets bumped &lt;br&gt;by animal" style="edgeStyle=orthogonalEdgeStyle;rounded=0;orthogonalLoop=1;jettySize=auto;html=1;labelBackgroundColor=none;" parent="YvYYPQl1nn8t_g6paHAM-27" source="YvYYPQl1nn8t_g6paHAM-18" target="YvYYPQl1nn8t_g6paHAM-20" edge="1">
          <mxGeometry relative="1" as="geometry" />
        </mxCell>
        <mxCell id="YvYYPQl1nn8t_g6paHAM-28" value="Normal Operation Mode" style="text;html=1;strokeColor=none;fillColor=none;align=center;verticalAlign=middle;whiteSpace=wrap;rounded=0;fontStyle=5;fontFamily=Helvetica;" parent="YvYYPQl1nn8t_g6paHAM-27" vertex="1">
          <mxGeometry x="-3" y="5" width="170" height="30" as="geometry" />
        </mxCell>
        <mxCell id="2ly5T8zjIKEABkKa2kA5-1" style="edgeStyle=orthogonalEdgeStyle;rounded=0;orthogonalLoop=1;jettySize=auto;html=1;entryX=1;entryY=0.5;entryDx=0;entryDy=0;" edge="1" parent="YvYYPQl1nn8t_g6paHAM-27" source="YvYYPQl1nn8t_g6paHAM-15" target="YvYYPQl1nn8t_g6paHAM-15">
          <mxGeometry relative="1" as="geometry">
            <Array as="points">
              <mxPoint x="570" y="170" />
              <mxPoint x="570" y="188" />
            </Array>
          </mxGeometry>
        </mxCell>
        <mxCell id="2ly5T8zjIKEABkKa2kA5-2" value="press action button &lt;br&gt;for next digit" style="edgeLabel;html=1;align=center;verticalAlign=middle;resizable=0;points=[];" vertex="1" connectable="0" parent="2ly5T8zjIKEABkKa2kA5-1">
          <mxGeometry x="-0.6426" y="-4" relative="1" as="geometry">
            <mxPoint x="89" y="14" as="offset" />
          </mxGeometry>
        </mxCell>
        <mxCell id="YvYYPQl1nn8t_g6paHAM-9" value="All Components Work" style="edgeStyle=orthogonalEdgeStyle;rounded=0;orthogonalLoop=1;jettySize=auto;html=1;" parent="1" source="YvYYPQl1nn8t_g6paHAM-6" edge="1">
          <mxGeometry x="0.4884" relative="1" as="geometry">
            <mxPoint x="380" y="420" as="targetPoint" />
            <Array as="points">
              <mxPoint x="380" y="310" />
            </Array>
            <mxPoint as="offset" />
          </mxGeometry>
        </mxCell>
        <mxCell id="YvYYPQl1nn8t_g6paHAM-32" value="If device was recording it immediately switches to Waiting&amp;nbsp;&lt;br&gt;&lt;br&gt;otherwise it returns to the last state&amp;nbsp;" style="text;html=1;align=center;verticalAlign=middle;whiteSpace=wrap;rounded=0;fontFamily=Helvetica;fillColor=none;fontColor=#FF6666;" parent="1" vertex="1">
          <mxGeometry x="620" y="900" width="160" height="30" as="geometry" />
        </mxCell>
      </root>
    </mxGraphModel>
  </diagram>
</mxfile>
